<svg width="1167" height="1121" viewBox="0 0 1167 1121" fill="none" xmlns="http://www.w3.org/2000/svg">
<rect width="1167" height="990" rx="90" fill="#3F3D56"/>
<path d="M979.375 1120.56C957.982 1120.56 938.031 1119.18 923.197 1116.67C904.896 1113.57 896 1109.08 896 1102.92L896.01 1102.72L928.13 858.146L912.049 812.047C911.277 809.878 911.046 807.554 911.376 805.275C911.705 802.997 912.585 800.833 913.94 798.972C915.263 797.082 917.032 795.548 919.091 794.506C921.15 793.465 923.435 792.949 925.741 793.004L1032.23 794.113C1034.49 794.137 1036.71 794.693 1038.71 795.737C1040.71 796.782 1042.43 798.284 1043.74 800.122C1045.06 801.96 1045.91 804.082 1046.25 806.314C1046.58 808.546 1046.38 810.826 1045.67 812.968L1030.62 858.129L1062.74 1102.73V1102.82C1062.75 1109.46 1052.67 1114.18 1031.95 1117.23C1011.59 1120.24 988.401 1120.56 979.375 1120.56Z" fill="white"/>
<path d="M979.375 1120.56C957.982 1120.56 938.031 1119.18 923.197 1116.67C904.896 1113.57 896 1109.08 896 1102.92L896.01 1102.72L928.13 858.146L912.049 812.047C911.277 809.878 911.046 807.554 911.376 805.275C911.705 802.997 912.585 800.833 913.94 798.972C915.263 797.082 917.032 795.548 919.091 794.506C921.15 793.465 923.435 792.949 925.741 793.004L1032.23 794.113C1034.49 794.137 1036.71 794.693 1038.71 795.737C1040.71 796.782 1042.43 798.284 1043.74 800.122C1045.06 801.96 1045.91 804.082 1046.25 806.314C1046.58 808.546 1046.38 810.826 1045.67 812.968L1030.62 858.129L1062.74 1102.73V1102.82C1062.75 1109.46 1052.67 1114.18 1031.95 1117.23C1011.59 1120.24 988.401 1120.56 979.375 1120.56ZM925.447 795.927C923.655 795.925 921.889 796.356 920.299 797.183C918.709 798.011 917.343 799.21 916.316 800.679C915.238 802.16 914.538 803.882 914.276 805.695C914.013 807.508 914.197 809.357 914.812 811.083L931.121 857.837L931.076 858.182L898.92 1103.01C898.925 1105.41 902.142 1110.14 923.685 1113.78C938.363 1116.27 958.14 1117.64 979.375 1117.64C998.039 1117.64 1017.53 1116.4 1031.52 1114.34C1049.4 1111.7 1059.69 1107.54 1059.82 1102.91L1027.63 857.843L1042.89 812.043C1043.46 810.339 1043.62 808.525 1043.35 806.748C1043.09 804.972 1042.41 803.283 1041.36 801.821C1040.32 800.358 1038.95 799.163 1037.35 798.331C1035.76 797.5 1034 797.057 1032.2 797.039L925.695 795.929C925.612 795.927 925.529 795.927 925.447 795.927Z" fill="#3F3D56"/>
<path opacity="0.5" d="M1040.08 1072.99H918.672L937.917 942.856L938.442 939.269L946.459 885.092C946.948 881.787 950.753 884.354 953.443 882.373C970.145 870.073 987.047 869.716 1004.1 881.571C1006.73 883.403 1010.37 881.259 1010.86 884.431L1019.29 938.772L1020.1 944.028L1040.08 1072.99Z" fill="#6C63FF"/>
<path d="M1025.09 1091.22H933.526C931.126 1091.22 928.753 1090.7 926.571 1089.7C924.388 1088.7 922.447 1087.24 920.878 1085.43C919.31 1083.61 918.152 1081.47 917.482 1079.17C916.813 1076.86 916.649 1074.44 917 1072.07L943.753 891.157C943.891 890.232 944.271 889.36 944.854 888.629C945.438 887.898 946.204 887.334 947.075 886.994C947.947 886.655 948.892 886.551 949.817 886.694C950.741 886.838 951.611 887.223 952.339 887.81C968.643 900.872 986.414 900.577 1005.15 886.94C1005.88 886.409 1006.73 886.075 1007.63 885.971C1008.52 885.867 1009.43 885.996 1010.26 886.346C1011.1 886.693 1011.85 887.254 1012.41 887.974C1012.98 888.694 1013.35 889.548 1013.48 890.453L1041.6 1071.95C1041.97 1074.33 1041.82 1076.77 1041.16 1079.09C1040.5 1081.4 1039.35 1083.55 1037.78 1085.38C1036.21 1087.21 1034.26 1088.68 1032.07 1089.69C1029.89 1090.7 1027.5 1091.22 1025.09 1091.22L1025.09 1091.22Z" fill="#6C63FF"/>
<path d="M988.249 1070.01H936.225V1072.93H988.249V1070.01Z" fill="white"/>
<path d="M988.249 1052.46H936.225V1055.38H988.249V1052.46Z" fill="white"/>
<path d="M988.249 1034.9H936.225V1037.83H988.249V1034.9Z" fill="white"/>
<path d="M988.249 1017.35H936.225V1020.28H988.249V1017.35Z" fill="white"/>
<path d="M988.249 999.797H936.225V1002.72H988.249V999.797Z" fill="white"/>
<path d="M1022.55 953.751C1018.52 957.758 1013.66 960.844 1008.32 962.799C1002.98 964.753 997.285 965.529 991.617 965.073C985.152 964.488 979.257 962.074 973.582 959.032C967.717 955.887 962.041 952.128 955.547 950.373C949.857 948.837 943.114 948.632 938.228 952.435C937.829 952.744 937.341 952.918 936.836 952.932C936.331 952.945 935.835 952.796 935.42 952.508L935.976 948.705C941.417 944.902 948.029 944.317 954.508 945.619C967.556 948.252 977.458 959.046 990.827 960.597C996.594 961.246 1002.43 960.453 1007.82 958.288C1013.2 956.123 1017.96 952.654 1021.68 948.193L1021.69 948.178L1022.55 953.751Z" fill="white"/>
<path d="M976 688C979.314 688 982 685.314 982 682C982 678.686 979.314 676 976 676C972.686 676 970 678.686 970 682C970 685.314 972.686 688 976 688Z" fill="#6C63FF"/>
<path d="M1010 737C1013.31 737 1016 734.314 1016 731C1016 727.686 1013.31 725 1010 725C1006.69 725 1004 727.686 1004 731C1004 734.314 1006.69 737 1010 737Z" fill="#6C63FF"/>
<path d="M957 768C960.314 768 963 765.314 963 762C963 758.686 960.314 756 957 756C953.686 756 951 758.686 951 762C951 765.314 953.686 768 957 768Z" fill="#6C63FF"/>
<path d="M237.367 413.721L235.582 415.494L233.809 413.709L232.619 414.891L234.392 416.676L232.607 418.449L233.789 419.639L235.574 417.866L237.347 419.651L238.537 418.469L236.764 416.684L238.549 414.911L237.367 413.721Z" fill="#E6E6E6"/>
<path d="M251.673 310.003L249.888 311.776L248.115 309.991L246.925 311.173L248.698 312.958L246.913 314.731L248.095 315.921L249.88 314.148L251.653 315.933L252.843 314.751L251.07 312.966L252.855 311.193L251.673 310.003Z" fill="#E6E6E6"/>
<path d="M296.634 113.184C292.772 115.757 288.819 109.633 292.755 107.174C296.617 104.601 300.57 110.725 296.634 113.184Z" fill="#E6E6E6"/>
<path d="M72.912 379.356L70.455 378.817L70.993 376.359L69.355 376L68.816 378.458L66.359 377.92L66 379.558L68.457 380.097L67.919 382.554L69.557 382.913L70.096 380.455L72.553 380.994L72.912 379.356Z" fill="#E6E6E6"/>
<path d="M448.912 84.356L446.455 83.817L446.993 81.359L445.355 81L444.816 83.458L442.359 82.92L442 84.558L444.457 85.097L443.919 87.554L445.557 87.913L446.096 85.455L448.553 85.994L448.912 84.356Z" fill="#E6E6E6"/>
<path d="M640.912 243.356L638.455 242.817L638.993 240.359L637.355 240L636.816 242.458L634.359 241.92L634 243.558L636.457 244.097L635.919 246.554L637.557 246.913L638.096 244.455L640.553 244.994L640.912 243.356Z" fill="#E6E6E6"/>
<path d="M176.815 123.134L174.358 122.595L174.896 120.138L173.258 119.779L172.719 122.236L170.261 121.698L169.902 123.336L172.36 123.875L171.822 126.333L173.46 126.691L173.999 124.234L176.456 124.772L176.815 123.134Z" fill="#E6E6E6"/>
<path d="M409.695 204.755C411.67 204.755 413.271 203.154 413.271 201.179C413.271 199.204 411.67 197.602 409.695 197.602C407.719 197.602 406.118 199.204 406.118 201.179C406.118 203.154 407.719 204.755 409.695 204.755Z" fill="#6C63FF"/>
<path d="M382.912 255.356L380.455 254.817L380.993 252.359L379.355 252L378.816 254.458L376.359 253.92L376 255.558L378.457 256.097L377.919 258.554L379.557 258.913L380.096 256.455L382.553 256.994L382.912 255.356Z" fill="#E6E6E6"/>
<path d="M477.815 211.134L475.358 210.595L475.896 208.138L474.258 207.779L473.719 210.236L471.261 209.698L470.902 211.336L473.36 211.875L472.822 214.333L474.46 214.691L474.999 212.234L477.456 212.772L477.815 211.134Z" fill="#E6E6E6"/>
<path d="M130.576 258.153C132.552 258.153 134.153 256.552 134.153 254.577C134.153 252.601 132.552 251 130.576 251C128.601 251 127 252.601 127 254.577C127 256.552 128.601 258.153 130.576 258.153Z" fill="#6C63FF"/>
<path d="M498.247 657.098L500.707 657.623L500.182 660.084L501.823 660.433L502.347 657.973L504.808 658.498L505.158 656.857L502.697 656.332L503.222 653.872L501.582 653.522L501.057 655.983L498.596 655.458L498.247 657.098Z" fill="#E6E6E6"/>
<path d="M322.59 811.207L325.05 811.732L324.525 814.192L326.166 814.542L326.69 812.082L329.151 812.606L329.501 810.966L327.04 810.441L327.565 807.981L325.925 807.631L325.4 810.091L322.939 809.566L322.59 811.207Z" fill="#E6E6E6"/>
<path d="M133.221 881.199C137.488 883.025 134.522 889.684 130.311 887.733C126.044 885.907 129.01 879.248 133.221 881.199Z" fill="#E6E6E6"/>
<path d="M559.411 813.576L560.303 815.928L557.951 816.822L558.546 818.389L560.899 817.496L561.792 819.848L563.36 819.252L562.468 816.9L564.819 816.007L564.224 814.44L561.871 815.333L560.979 812.981L559.411 813.576Z" fill="#E6E6E6"/>
<path d="M25.8098 769.474L26.7022 771.826L24.3501 772.72L24.9453 774.287L27.2979 773.394L28.1912 775.746L29.7588 775.151L28.8665 772.799L31.2177 771.906L30.6225 770.338L28.2699 771.231L27.3775 768.879L25.8098 769.474Z" fill="#E6E6E6"/>
<path d="M134.927 412.41L135.82 414.762L133.468 415.656L134.063 417.224L136.416 416.331L137.309 418.682L138.877 418.087L137.984 415.735L140.335 414.842L139.74 413.274L137.388 414.167L136.495 411.815L134.927 412.41Z" fill="#E6E6E6"/>
<path d="M1116.76 902.012L1114.97 903.785L1113.2 902L1112.01 903.182L1113.78 904.967L1112 906.74L1113.18 907.93L1114.97 906.157L1116.74 907.942L1117.93 906.76L1116.16 904.975L1117.94 903.202L1116.76 902.012Z" fill="#E6E6E6"/>
<path d="M678.912 848.356L676.455 847.817L676.993 845.359L675.355 845L674.816 847.458L672.359 846.92L672 848.558L674.457 849.097L673.919 851.554L675.557 851.913L676.096 849.455L678.553 849.994L678.912 848.356Z" fill="#E6E6E6"/>
<path d="M736.576 727.153C738.552 727.153 740.153 725.552 740.153 723.577C740.153 721.601 738.552 720 736.576 720C734.601 720 733 721.601 733 723.577C733 725.552 734.601 727.153 736.576 727.153Z" fill="#6C63FF"/>
<path d="M710.81 918.945L711.702 921.297L709.35 922.191L709.945 923.759L712.298 922.866L713.191 925.217L714.759 924.622L713.866 922.27L716.218 921.377L715.623 919.809L713.27 920.702L712.377 918.35L710.81 918.945Z" fill="#E6E6E6"/>
<path d="M622.936 455.469L624.409 457.508L622.37 458.981L623.352 460.341L625.391 458.868L626.864 460.907L628.224 459.925L626.751 457.886L628.791 456.413L627.809 455.053L625.769 456.526L624.296 454.487L622.936 455.469Z" fill="#E6E6E6"/>
<path d="M522.716 425.169L524.189 427.209L522.15 428.682L523.132 430.042L525.171 428.569L526.644 430.608L528.004 429.626L526.531 427.587L528.571 426.114L527.589 424.754L525.549 426.227L524.076 424.187L522.716 425.169Z" fill="#E6E6E6"/>
<path d="M563.356 612.556L562.44 614.899L560.096 613.985L559.486 615.547L561.83 616.462L560.916 618.805L562.478 619.415L563.393 617.072L565.736 617.987L566.346 616.425L564.002 615.509L564.918 613.166L563.356 612.556Z" fill="#E6E6E6"/>
<path d="M452.623 536.703C452.931 534.752 451.599 532.921 449.648 532.613C447.697 532.305 445.865 533.637 445.558 535.588C445.25 537.539 446.582 539.37 448.533 539.678C450.484 539.986 452.315 538.654 452.623 536.703Z" fill="#6C63FF"/>
<path d="M605.673 556.451L608.135 555.937L608.651 558.399L610.293 558.056L609.777 555.593L612.239 555.077L611.896 553.436L609.434 553.95L608.918 551.489L607.276 551.832L607.792 554.295L605.33 554.81L605.673 556.451Z" fill="#E6E6E6"/>
<path d="M288.076 866.706L288.968 869.058L286.617 869.952L287.212 871.519L289.564 870.627L290.458 872.979L292.026 872.384L291.133 870.031L293.485 869.137L292.889 867.57L290.537 868.463L289.644 866.111L288.076 866.706Z" fill="#E6E6E6"/>
<path d="M148.057 736.465C146.977 734.811 144.761 734.346 143.107 735.427C141.453 736.507 140.988 738.723 142.069 740.377C143.149 742.03 145.365 742.495 147.019 741.415C148.672 740.335 149.137 738.119 148.057 736.465Z" fill="#6C63FF"/>
<path d="M400.944 422.994C399.864 421.341 397.648 420.876 395.994 421.956C394.34 423.036 393.876 425.252 394.956 426.906C396.036 428.56 398.252 429.025 399.906 427.944C401.56 426.864 402.025 424.648 400.944 422.994Z" fill="#6C63FF"/>
<path d="M205.068 731.216L205.96 733.568L203.608 734.461L204.203 736.029L206.556 735.136L207.449 737.487L209.017 736.892L208.124 734.54L210.476 733.647L209.88 732.08L207.528 732.972L206.635 730.621L205.068 731.216Z" fill="#E6E6E6"/>
<path d="M116.145 675.945L117.037 678.297L114.686 679.19L115.281 680.758L117.633 679.866L118.527 682.218L120.094 681.622L119.201 679.27L121.553 678.376L120.957 676.809L118.606 677.701L117.712 675.35L116.145 675.945Z" fill="#E6E6E6"/>
<path d="M456.224 500.952L458.533 499.953L459.532 502.262L461.072 501.596L460.073 499.287L462.382 498.288L461.716 496.749L459.407 497.748L458.408 495.439L456.868 496.105L457.867 498.414L455.558 499.413L456.224 500.952Z" fill="#E6E6E6"/>
<path d="M342.518 667.776C347.053 666.79 348.497 673.935 343.935 674.787C339.4 675.773 337.956 668.628 342.518 667.776Z" fill="#E6E6E6"/>
<path d="M190.225 639.026L192.316 640.425L190.918 642.516L192.312 643.449L193.711 641.357L195.802 642.755L196.734 641.361L194.643 639.962L196.041 637.871L194.647 636.939L193.248 639.031L191.157 637.632L190.225 639.026Z" fill="#E6E6E6"/>
<path d="M270.688 541.251C268.849 540.53 266.773 541.437 266.052 543.276C265.331 545.114 266.237 547.19 268.076 547.911C269.915 548.632 271.991 547.726 272.712 545.887C273.433 544.048 272.526 541.973 270.688 541.251Z" fill="#6C63FF"/>
<path d="M314.094 503.92L316.184 505.318L314.786 507.41L316.18 508.342L317.579 506.251L319.67 507.649L320.602 506.255L318.512 504.856L319.909 502.765L318.516 501.833L317.116 503.924L315.026 502.526L314.094 503.92Z" fill="#E6E6E6"/>
<path d="M209.597 510.446L211.688 511.845L210.29 513.936L211.684 514.868L213.082 512.777L215.174 514.175L216.107 512.781L214.015 511.382L215.413 509.29L214.019 508.359L212.62 510.45L210.529 509.052L209.597 510.446Z" fill="#E6E6E6"/>
<path d="M962.928 473.08L964.026 475.344L961.762 476.442L962.494 477.951L964.758 476.853L965.855 479.117L967.364 478.385L966.267 476.121L968.53 475.024L967.799 473.514L965.535 474.612L964.437 472.348L962.928 473.08Z" fill="#E6E6E6"/>
<path d="M869.465 425.891L870.563 428.155L868.299 429.252L869.031 430.762L871.295 429.664L872.393 431.928L873.902 431.196L872.804 428.932L875.068 427.834L874.336 426.325L872.072 427.423L870.974 425.159L869.465 425.891Z" fill="#E6E6E6"/>
<path d="M697.888 319.494C699.068 323.982 691.993 325.733 690.944 321.212C689.764 316.724 696.839 314.973 697.888 319.494Z" fill="#E6E6E6"/>
<path d="M877.055 617.484L875.748 619.633L873.598 618.326L872.727 619.759L874.877 621.067L873.571 623.216L875.003 624.087L876.311 621.938L878.46 623.244L879.331 621.811L877.181 620.504L878.488 618.355L877.055 617.484Z" fill="#E6E6E6"/>
<path d="M720.036 166.101L718.729 168.251L716.578 166.944L715.707 168.377L717.857 169.684L716.551 171.834L717.984 172.705L719.291 170.556L721.44 171.862L722.312 170.429L720.162 169.122L721.469 166.973L720.036 166.101Z" fill="#E6E6E6"/>
<path d="M932.737 36.0891L931.43 38.2382L929.279 36.9317L928.408 38.3645L930.558 39.672L929.252 41.8214L930.685 42.6925L931.992 40.5434L934.141 41.8496L935.013 40.4168L932.862 39.1093L934.17 36.9602L932.737 36.0891Z" fill="#E6E6E6"/>
<path d="M668.417 436.057L667.11 438.206L664.96 436.9L664.089 438.333L666.238 439.64L664.932 441.79L666.365 442.662L667.672 440.512L669.822 441.818L670.693 440.385L668.543 439.078L669.85 436.928L668.417 436.057Z" fill="#E6E6E6"/>
<path d="M821.193 242.267C821.834 240.399 820.839 238.365 818.971 237.724C817.102 237.083 815.068 238.078 814.427 239.946C813.786 241.814 814.781 243.849 816.649 244.49C818.518 245.131 820.552 244.136 821.193 242.267Z" fill="#6C63FF"/>
<path d="M860.364 284.021L859.057 286.17L856.906 284.863L856.035 286.296L858.185 287.604L856.879 289.753L858.312 290.624L859.619 288.475L861.769 289.781L862.64 288.349L860.49 287.041L861.797 284.892L860.364 284.021Z" fill="#E6E6E6"/>
<path d="M849.332 179.903L848.025 182.053L845.875 180.746L845.004 182.179L847.153 183.486L845.847 185.637L847.28 186.508L848.587 184.358L850.738 185.664L851.608 184.231L849.459 182.924L850.765 180.775L849.332 179.903Z" fill="#E6E6E6"/>
<path d="M781.124 523.608C781.765 521.74 780.77 519.706 778.902 519.065C777.033 518.424 774.999 519.419 774.358 521.287C773.717 523.155 774.712 525.189 776.58 525.83C778.449 526.471 780.483 525.476 781.124 523.608Z" fill="#6C63FF"/>
<path d="M928.445 569.551L930.96 569.47L931.042 571.985L932.718 571.93L932.637 569.415L935.15 569.333L935.096 567.657L932.582 567.738L932.5 565.225L930.824 565.279L930.905 567.794L928.391 567.875L928.445 569.551Z" fill="#E6E6E6"/>
<path d="M1024.78 321.365C1022.87 321.85 1021.71 323.795 1022.19 325.71C1022.68 327.625 1024.62 328.784 1026.54 328.299C1028.45 327.813 1029.61 325.868 1029.13 323.953C1028.64 322.039 1026.7 320.88 1024.78 321.365Z" fill="#6C63FF"/>
<path d="M1094.46 560.731L1096.97 560.65L1097.06 563.164L1098.73 563.11L1098.65 560.596L1101.17 560.514L1101.11 558.838L1098.6 558.919L1098.52 556.404L1096.84 556.459L1096.92 558.973L1094.41 559.055L1094.46 560.731Z" fill="#E6E6E6"/>
<path d="M426.403 831.58C425.322 829.927 423.106 829.462 421.452 830.542C419.799 831.622 419.334 833.838 420.414 835.492C421.494 837.146 423.71 837.611 425.364 836.531C427.018 835.45 427.483 833.234 426.403 831.58Z" fill="#6C63FF"/>
<path opacity="0.8" d="M700.923 545.255L733.893 506.657L766.864 468.058L785.476 446.269C786.506 445.063 784.917 443.182 783.887 444.388L750.917 482.986L717.946 521.585L699.334 543.374C698.304 544.58 699.893 546.461 700.923 545.255V545.255Z" fill="url(#paint0_linear_1_264)"/>
<path opacity="0.8" d="M108.923 554.255L141.893 515.657L174.864 477.058L193.476 455.269C194.506 454.063 192.917 452.182 191.887 453.388L158.917 491.986L125.946 530.585L107.334 552.374C106.304 553.58 107.893 555.461 108.923 554.255V554.255Z" fill="url(#paint1_linear_1_264)"/>
<path opacity="0.8" d="M597.167 182.796L651.479 119.213L705.791 55.6306L736.45 19.7372C738.147 17.7513 735.529 14.653 733.833 16.6389L679.521 80.2214L625.209 143.804L594.55 179.697C592.853 181.683 595.471 184.781 597.167 182.796V182.796Z" fill="url(#paint2_linear_1_264)"/>
<path opacity="0.8" d="M136.051 215.021L171.225 173.843L206.398 132.666L226.254 109.42C227.353 108.134 225.658 106.128 224.559 107.414L189.385 148.591L154.212 189.769L134.356 213.014C133.257 214.3 134.953 216.307 136.051 215.021V215.021Z" fill="url(#paint3_linear_1_264)"/>
<path d="M819.058 773.692C820.238 778.18 813.163 779.931 812.114 775.41C810.933 770.922 818.009 769.171 819.058 773.692Z" fill="#E6E6E6"/>
<path opacity="0.8" d="M596.749 891.082L626.732 855.98L656.716 820.879L673.642 801.063C674.578 799.967 673.133 798.256 672.197 799.353L642.213 834.454L612.23 869.556L595.303 889.371C594.367 890.468 595.812 892.178 596.749 891.082V891.082Z" fill="url(#paint4_linear_1_264)"/>
<path opacity="0.8" d="M1022.75 550.082L1052.73 514.98L1082.72 479.879L1099.64 460.063C1100.58 458.967 1099.13 457.256 1098.2 458.353L1068.21 493.454L1038.23 528.556L1021.3 548.371C1020.37 549.468 1021.81 551.178 1022.75 550.082V550.082Z" fill="url(#paint5_linear_1_264)"/>
<path d="M892.5 339C958.498 339 1012 285.498 1012 219.5C1012 153.502 958.498 100 892.5 100C826.502 100 773 153.502 773 219.5C773 285.498 826.502 339 892.5 339Z" fill="#E6E6E6"/>
<path d="M880.746 150.934C888.319 150.934 894.459 144.795 894.459 137.221C894.459 129.648 888.319 123.508 880.746 123.508C873.172 123.508 867.033 129.648 867.033 137.221C867.033 144.795 873.172 150.934 880.746 150.934Z" fill="#CBCBCB"/>
<path d="M904.254 288.066C911.827 288.066 917.967 281.926 917.967 274.352C917.967 266.779 911.827 260.639 904.254 260.639C896.68 260.639 890.541 266.779 890.541 274.352C890.541 281.926 896.68 288.066 904.254 288.066Z" fill="#CBCBCB"/>
<path d="M957.148 207.746C962.557 207.746 966.943 203.361 966.943 197.951C966.943 192.541 962.557 188.156 957.148 188.156C951.738 188.156 947.353 192.541 947.353 197.951C947.353 203.361 951.738 207.746 957.148 207.746Z" fill="#CBCBCB"/>
<path d="M845.484 260.639C862.795 260.639 876.828 246.606 876.828 229.295C876.828 211.984 862.795 197.951 845.484 197.951C828.173 197.951 814.139 211.984 814.139 229.295C814.139 246.606 828.173 260.639 845.484 260.639Z" fill="#CBCBCB"/>
<path d="M245.514 382.954C170.447 379.649 112.243 363.456 113.007 346.09C113.466 335.678 134.711 327.306 171.294 323.12C171.425 323.104 171.558 323.115 171.685 323.15C171.812 323.186 171.931 323.246 172.034 323.328C172.138 323.41 172.224 323.511 172.288 323.626C172.352 323.742 172.393 323.868 172.408 323.999C172.423 324.13 172.412 324.263 172.375 324.39C172.339 324.517 172.278 324.635 172.195 324.738C172.113 324.841 172.011 324.926 171.895 324.99C171.78 325.053 171.653 325.093 171.521 325.107C137.06 329.05 115.404 337.124 115.005 346.178C114.314 361.882 174.12 377.809 245.602 380.956C317.084 384.104 378.058 373.495 378.75 357.791C379.15 348.699 358.153 338.725 323.952 331.762C323.823 331.736 323.701 331.685 323.591 331.612C323.482 331.539 323.388 331.444 323.316 331.335C323.243 331.225 323.192 331.102 323.167 330.973C323.142 330.844 323.143 330.711 323.169 330.582C323.195 330.453 323.247 330.331 323.32 330.222C323.394 330.113 323.488 330.019 323.598 329.947C323.708 329.874 323.831 329.824 323.96 329.799C324.09 329.775 324.222 329.776 324.351 329.802C360.652 337.193 381.208 347.426 380.748 357.879C379.983 375.245 320.582 386.259 245.514 382.954Z" fill="#6C63FF"/>
<path d="M178.843 385.863C185.123 397.792 194.426 407.864 205.82 415.069C217.215 422.274 230.302 426.361 243.772 426.92C257.242 427.479 270.622 424.491 282.575 418.255C294.527 412.018 304.632 402.753 311.879 391.384C267.466 391.983 223.054 390.14 178.843 385.863V385.863Z" fill="#6C63FF"/>
<path d="M320.183 370.349C323.962 359.013 325.051 346.953 323.364 335.123C321.676 323.293 317.258 312.019 310.46 302.192C303.662 292.364 294.669 284.254 284.194 278.503C273.72 272.752 262.05 269.518 250.11 269.057C238.169 268.596 226.285 270.921 215.398 275.847C204.511 280.773 194.92 288.165 187.384 297.439C179.848 306.712 174.573 317.613 171.979 329.277C169.384 340.942 169.539 353.05 172.433 364.644C221.229 372.927 270.894 374.845 320.183 370.349V370.349Z" fill="#6C63FF"/>
<path d="M264.754 318.73C269.724 318.73 273.754 314.7 273.754 309.73C273.754 304.759 269.724 300.73 264.754 300.73C259.783 300.73 255.754 304.759 255.754 309.73C255.754 314.7 259.783 318.73 264.754 318.73Z" fill="white"/>
<path d="M218.434 353.72C226.718 353.72 233.434 347.004 233.434 338.72C233.434 330.436 226.718 323.72 218.434 323.72C210.149 323.72 203.434 330.436 203.434 338.72C203.434 347.004 210.149 353.72 218.434 353.72Z" fill="white"/>
<path d="M244.294 419.928C249.265 419.928 253.294 415.898 253.294 410.928C253.294 405.957 249.265 401.928 244.294 401.928C239.323 401.928 235.294 405.957 235.294 410.928C235.294 415.898 239.323 419.928 244.294 419.928Z" fill="white"/>
<defs>
<linearGradient id="paint0_linear_1_264" x1="699" y1="494.822" x2="785.81" y2="494.822" gradientUnits="userSpaceOnUse">
<stop stop-color="white"/>
<stop offset="1" stop-color="white" stop-opacity="0.3"/>
</linearGradient>
<linearGradient id="paint1_linear_1_264" x1="107" y1="503.822" x2="193.81" y2="503.822" gradientUnits="userSpaceOnUse">
<stop stop-color="white"/>
<stop offset="1" stop-color="white" stop-opacity="0.3"/>
</linearGradient>
<linearGradient id="paint2_linear_1_264" x1="594" y1="99.7172" x2="737" y2="99.7172" gradientUnits="userSpaceOnUse">
<stop stop-color="white"/>
<stop offset="1" stop-color="white" stop-opacity="0.3"/>
</linearGradient>
<linearGradient id="paint3_linear_1_264" x1="134" y1="161.217" x2="226.61" y2="161.217" gradientUnits="userSpaceOnUse">
<stop stop-color="white"/>
<stop offset="1" stop-color="white" stop-opacity="0.3"/>
</linearGradient>
<linearGradient id="paint4_linear_1_264" x1="595" y1="845.217" x2="673.945" y2="845.217" gradientUnits="userSpaceOnUse">
<stop stop-color="white"/>
<stop offset="1" stop-color="white" stop-opacity="0.3"/>
</linearGradient>
<linearGradient id="paint5_linear_1_264" x1="1021" y1="504.217" x2="1099.95" y2="504.217" gradientUnits="userSpaceOnUse">
<stop stop-color="white"/>
<stop offset="1" stop-color="white" stop-opacity="0.3"/>
</linearGradient>
</defs>
</svg>
